<?xml version="1.0" standalone="no"?>
<!DOCTYPE svg PUBLIC "-//W3C//DTD SVG 20010904//EN"
 "http://www.w3.org/TR/2001/REC-SVG-20010904/DTD/svg10.dtd">
<svg version="1.0" xmlns="http://www.w3.org/2000/svg"
 width="225.000000pt" height="225.000000pt" viewBox="0 0 225.000000 225.000000"
 preserveAspectRatio="xMidYMid meet">

<g transform="translate(0.000000,225.000000) scale(0.100000,-0.100000)"
fill="#000000" stroke="none">
<path d="M1702 2233 c-11 -10 -102 -171 -202 -358 l-182 -340 -8 -114 c-10
-128 -3 -153 42 -172 38 -15 59 -6 162 76 l81 63 98 186 99 186 66 0 c41 -1
74 -6 85 -14 26 -20 37 -70 37 -167 0 -71 3 -88 16 -93 35 -13 44 12 44 123 0
85 -4 113 -19 141 -24 46 -67 70 -135 77 l-55 6 64 122 c68 127 77 163 47 193
-25 25 -176 102 -200 102 -11 0 -29 -8 -40 -17z m126 -90 c37 -20 68 -37 70
-38 5 -4 -42 -95 -48 -93 -95 48 -150 80 -150 88 0 22 35 80 48 80 7 0 44 -17
80 -37z m-10 -188 c2 -2 -45 -94 -103 -204 l-107 -201 -77 41 c-42 22 -78 42
-80 44 -2 2 45 94 104 205 l107 201 77 -42 c42 -23 77 -43 79 -44z m-248 -465
c0 -28 -31 -65 -101 -119 -43 -34 -83 -61 -90 -61 -18 0 -5 188 17 233 l17 36
79 -40 c43 -21 78 -43 78 -49z"/>
<path d="M305 1815 c-46 -16 -82 -57 -90 -100 -3 -16 -5 -115 -3 -220 l3 -190
25 0 25 0 6 205 c3 113 7 206 7 207 1 1 12 11 24 23 21 20 32 20 519 20 274 0
504 3 513 6 22 8 20 41 -3 54 -13 6 -188 10 -503 10 -390 -1 -491 -4 -523 -15z"/>
<path d="M434 1605 c-4 -8 -1 -22 6 -30 19 -22 751 -22 770 0 7 8 10 22 6 30
-5 13 -56 15 -391 15 -335 0 -386 -2 -391 -15z"/>
<path d="M444 1456 c-15 -12 -17 -18 -8 -33 10 -17 35 -18 389 -18 354 0 379
1 389 18 9 15 7 21 -8 33 -29 21 -733 21 -762 0z"/>
<path d="M1978 936 l-3 -455 -23 -23 c-22 -23 -27 -23 -320 -28 -198 -3 -304
-9 -317 -17 -35 -20 -51 -45 -117 -186 -36 -76 -69 -137 -74 -136 -5 1 -38 63
-73 138 -65 139 -81 164 -116 184 -13 8 -119 14 -317 17 -293 5 -298 5 -320
28 -23 22 -23 23 -26 378 l-3 355 -27 -3 -27 -3 -3 -350 c-2 -391 -2 -396 67
-442 33 -23 39 -23 318 -23 187 0 291 -4 305 -11 12 -7 50 -73 95 -167 82
-172 95 -192 128 -192 33 0 46 20 128 192 45 94 83 160 95 167 14 7 118 11
305 11 279 0 285 0 318 23 70 47 69 40 67 542 l-3 450 -27 3 -27 3 -3 -455z"/>
<path d="M453 1300 c-26 -11 -30 -32 -9 -49 22 -18 97 -10 110 12 22 36 -45
60 -101 37z"/>
<path d="M674 1296 c-15 -12 -17 -18 -8 -33 10 -17 31 -18 274 -18 243 0 264
1 274 18 9 15 7 21 -8 33 -29 21 -503 21 -532 0z"/>
<path d="M674 1141 c-147 -38 -237 -152 -238 -301 -1 -90 29 -165 90 -224 61
-59 108 -79 200 -84 72 -4 89 -1 136 20 116 53 178 142 186 264 7 112 -36 216
-82 198 -20 -8 -18 -33 8 -99 55 -143 -50 -306 -208 -322 -69 -7 -132 15 -189
66 -55 49 -77 101 -77 181 0 57 5 73 33 120 60 100 167 140 294 110 47 -12 56
-11 64 1 13 21 6 32 -34 52 -42 21 -136 30 -183 18z"/>
<path d="M1425 1136 c-67 -21 -100 -43 -148 -96 -60 -67 -81 -130 -75 -224 8
-122 70 -211 186 -264 47 -21 64 -24 136 -20 92 5 139 25 200 84 90 88 119
241 66 348 -31 61 -53 77 -76 55 -14 -15 -14 -21 10 -67 32 -64 35 -156 7
-217 -41 -90 -148 -152 -247 -142 -213 22 -299 285 -138 427 21 18 52 39 70
46 40 17 129 18 173 3 27 -10 35 -9 49 5 51 51 -105 96 -213 62z"/>
<path d="M612 928 c-26 -26 -8 -58 33 -58 25 0 37 36 19 54 -19 19 -36 20 -52
4z"/>
<path d="M828 929 c-27 -15 -22 -47 7 -55 24 -6 55 9 55 27 0 9 -29 39 -38 39
-4 0 -15 -5 -24 -11z"/>
<path d="M1376 924 c-9 -8 -16 -19 -16 -23 0 -18 31 -33 55 -27 30 8 34 41 6
56 -25 13 -27 13 -45 -6z"/>
<path d="M1586 924 c-18 -18 -6 -54 19 -54 41 0 59 32 33 58 -16 16 -33 15
-52 -4z"/>
<path d="M1445 805 c-66 -23 -102 -82 -60 -98 7 -3 29 5 48 19 48 32 100 32
149 -2 31 -22 40 -24 53 -14 22 18 19 37 -11 63 -51 45 -112 56 -179 32z"/>
<path d="M609 754 c-15 -19 -6 -38 33 -67 58 -43 165 -37 218 13 26 25 29 32
20 50 -14 26 -21 25 -67 -6 -46 -31 -106 -29 -149 5 -32 25 -38 26 -55 5z"/>
</g>
</svg>
